HIERARCHY
ROOT Hips
{
	OFFSET	0.00	0.00	0.00
	CHANNELS 6 Xposition Yposition Zposition Zrotation Xrotation Yrotation
	JOINT LeftUpLeg
	{
		OFFSET	 0.126116	-0.014019	-0.065224
		CHANNELS 3 Zrotation Xrotation Yrotation
		JOINT LeftLeg
		{
			OFFSET	 0.000000	 0.000000	 0.569914
			CHANNELS 3 Zrotation Xrotation Yrotation
			JOINT LeftFoot
			{
				OFFSET	 0.000000	 0.000000	 0.544423
				CHANNELS 3 Zrotation Xrotation Yrotation
				JOINT LeftToeBase
				{
					OFFSET	 0.000000	 0.000000	 0.207117
					CHANNELS 3 Zrotation Xrotation Yrotation
					End Site
					{
						OFFSET	 0.000000	 0.000000	 0.207117
					}
				}
			}
		}
	}
	JOINT RightUpLeg
	{
		OFFSET	-0.124023	-0.008373	-0.065224
		CHANNELS 3 Zrotation Xrotation Yrotation
		JOINT RightLeg
		{
			OFFSET	 0.000000	 0.000000	 0.570047
			CHANNELS 3 Zrotation Xrotation Yrotation
			JOINT RightFoot
			{
				OFFSET	 0.000000	 0.000000	 0.544354
				CHANNELS 3 Zrotation Xrotation Yrotation
				JOINT RightToeBase
				{
					OFFSET	 0.000000	 0.000000	 0.207540
					CHANNELS 3 Zrotation Xrotation Yrotation
					End Site
					{
						OFFSET	 0.000000	 0.000000	 0.207540
					}
				}
			}
		}
	}
	JOINT Spine
	{
		OFFSET	 0.000184	-0.007763	 0.117403
		CHANNELS 3 Zrotation Xrotation Yrotation
		JOINT Spine1
		{
			OFFSET	 0.000000	 0.000000	 0.137269
			CHANNELS 3 Zrotation Xrotation Yrotation
			JOINT Spine2
			{
				OFFSET	 0.000000	 0.000000	 0.156879
				CHANNELS 3 Zrotation Xrotation Yrotation
				JOINT LeftShoulder
				{
					OFFSET	 0.080501	-0.002496	 0.160144
					CHANNELS 3 Zrotation Xrotation Yrotation
					JOINT LeftArm
					{
						OFFSET	 0.000000	 0.000000	 0.164363
						CHANNELS 3 Zrotation Xrotation Yrotation
						JOINT LeftForeArm
						{
							OFFSET	 0.000000	 0.000000	 0.364576
							CHANNELS 3 Zrotation Xrotation Yrotation
							JOINT LeftHand
							{
								OFFSET	 0.000000	 0.000000	 0.360812
								CHANNELS 3 Zrotation Xrotation Yrotation
								JOINT LeftHandIndex1
								{
									OFFSET	 0.000000	 0.000000	 0.086006
									CHANNELS 3 Zrotation Xrotation Yrotation
									JOINT LeftHandIndex2
									{
										OFFSET	 0.000000	 0.000000	 0.047236
										CHANNELS 3 Zrotation Xrotation Yrotation
										JOINT LeftHandIndex3
										{
											OFFSET	-0.004284	-0.000551	 0.038166
											CHANNELS 3 Zrotation Xrotation Yrotation
											End Site
											{
												OFFSET	-0.004284	-0.000551	 0.038166
											}
										}
									}
								}
							}
						}
					}
				}
				JOINT Neck
				{
					OFFSET	 0.000000	 0.000000	 0.176489
					CHANNELS 3 Zrotation Xrotation Yrotation
					JOINT Head
					{
						OFFSET	 0.000000	-0.001747	 0.077940
						CHANNELS 3 Zrotation Xrotation Yrotation
						End Site
						{
							OFFSET	 0.000000	-0.001747	 0.077940
						}
					}
				}
				JOINT RightShoulder
				{
					OFFSET	-0.080363	 0.000306	 0.159706
					CHANNELS 3 Zrotation Xrotation Yrotation
					JOINT RightArm
					{
						OFFSET	 0.000000	 0.000000	 0.164196
						CHANNELS 3 Zrotation Xrotation Yrotation
						JOINT RightForeArm
						{
							OFFSET	 0.000000	 0.000000	 0.365611
							CHANNELS 3 Zrotation Xrotation Yrotation
							JOINT RightHand
							{
								OFFSET	 0.000000	 0.000000	 0.360648
								CHANNELS 3 Zrotation Xrotation Yrotation
								JOINT RightHandIndex1
								{
									OFFSET	 0.000000	 0.000000	 0.069977
									CHANNELS 3 Zrotation Xrotation Yrotation
									JOINT RightHandIndex2
									{
										OFFSET	 0.000000	 0.000000	 0.052305
										CHANNELS 3 Zrotation Xrotation Yrotation
										JOINT RightHandIndex3
										{
											OFFSET	 0.009002	-0.000782	 0.042196
											CHANNELS 3 Zrotation Xrotation Yrotation
											End Site
											{
												OFFSET	 0.009002	-0.000782	 0.042196
											}
										}
									}
								}
							}
						}
					}
				}
			}
		}
	}
}
MOTION
Frames:    5
Frame Time: 0.03333334
 0.000377	 0.043222	 1.274313	-0.087109	 2.399376	 0.634049	 10.521150	-6.443837	 177.409800	 2.306563	-13.996980	 0.659105	-0.606293	 71.271140	 0.465779	-2.385833	 28.452750	 0.000004	-2.992568	-5.691119	-177.961000	-0.788099	-12.063080	 0.912495	 5.727506	 70.052260	 0.562901	 2.384659	 28.388700	-0.000001	 0.133917	 7.088145	 0.086654	 0.396578	-5.176681	 0.149083	-0.711444	 8.462469	 0.345467	-91.189400	 69.925250	-177.873400	-7.735910	 1.441280	-22.416520	 25.902130	-0.127589	-0.566065	-8.542181	-8.611860	-4.054901	-2.027600	 6.559038	 9.033609	-5.188889	 0.308190	 3.541030	-5.234859	 0.342567	 0.430617	 4.329063	 17.428160	-6.573361	-5.852340	-12.905720	 1.907292	 89.041850	 68.871650	 177.422000	 10.025750	 8.320136	 10.884220	-26.982290	-6.300916	 17.474640	 5.543223	-8.786598	 6.166696	 1.803333	 3.979147	-15.098590	 4.898592	 3.004813	-9.310344	 5.224449	 0.395017	 2.014677
 0.000318	 0.043919	 1.274003	-0.080562	 2.536844	 0.646867	 10.547950	-6.757254	 177.421200	 2.279896	-14.255960	 0.664471	-0.442851	 71.342950	 0.318180	-2.385833	 28.452750	 0.000004	-3.045620	-5.998694	-177.996200	-0.778457	-12.317360	 0.933500	 5.680193	 70.143580	 0.611758	 2.384659	 28.388700	-0.000001	-0.022299	 7.238860	 0.089033	 0.386318	-5.612710	 0.139915	-0.688927	 9.034290	 0.358725	-91.154120	 69.681690	-177.791000	-7.511458	 1.346370	-22.832870	 25.711000	-0.126088	-0.597620	-8.172607	-8.816849	-4.107919	-2.027600	 6.559038	 9.033609	-5.188889	 0.308190	 3.541030	-5.234859	 0.342567	 0.430617	 4.401688	 18.064550	-6.773825	-5.821205	-13.331890	 1.887409	 88.993820	 68.536990	 177.322900	 9.884446	 8.267897	 11.108280	-26.892200	-6.382003	 17.798000	 5.167921	-8.864262	 6.052649	 1.803333	 3.979147	-15.098590	 4.898592	 3.004813	-9.310344	 5.224449	 0.395017	 2.014677
 0.000117	 0.046510	 1.272810	-0.058712	 2.997417	 0.692427	 10.636000	-7.844763	 177.458000	 2.192061	-15.168200	 0.682993	 0.127561	 71.587820	-0.202939	-2.385833	 28.452750	 0.000004	-3.223449	-7.066208	-178.121500	-0.744598	-13.216690	 1.008258	 5.522335	 70.457430	 0.775674	 2.384659	 28.388700	-0.000001	-0.561768	 7.655521	 0.078199	 0.347505	-6.808989	 0.144925	-0.605057	 10.832790	 0.381119	-91.031270	 68.863240	-177.517900	-6.733511	 1.217968	-24.352410	 25.073040	-0.118413	-0.699871	-6.953700	-9.462911	-4.299659	-2.027600	 6.559038	 9.033609	-5.188889	 0.308190	 3.541030	-5.234859	 0.342567	 0.430617	 4.664851	 20.202010	-7.457442	-5.708969	-14.758330	 1.820598	 88.826030	 67.412090	 176.995400	 9.353838	 8.340476	 11.963110	-26.611420	-6.611125	 18.767800	 3.922587	-9.099656	 5.673361	 1.803333	 3.979147	-15.098590	 4.898592	 3.004813	-9.310344	 5.224449	 0.395017	 2.014677
-0.000252	 0.049913	 1.271216	-0.007535	 3.617421	 0.759722	 10.675010	-9.269163	 177.498300	 2.201855	-16.320820	 0.736283	 0.746622	 71.984750	-0.877455	-2.385833	 28.452750	 0.000004	-3.442399	-8.443010	-178.304800	-0.719648	-14.326350	 1.097399	 5.213845	 70.833060	 1.125003	 2.384659	 28.388700	-0.000001	-1.030556	 8.072804	 0.080478	 0.339921	-8.071760	 0.103251	-0.663262	 12.431260	 0.444032	-90.945050	 68.261510	-177.345700	-6.000699	 1.711273	-25.869950	 24.327520	-0.109334	-0.812067	-5.995135	-10.384370	-4.659832	-2.027600	 6.559038	 9.033609	-5.188889	 0.308190	 3.541030	-5.234859	 0.342567	 0.430617	 4.709305	 22.006630	-7.986069	-5.524895	-16.116850	 1.771300	 88.667080	 66.291810	 176.724300	 8.598521	 8.799796	 12.830070	-26.141050	-6.691905	 19.571660	 2.738039	-9.513690	 5.395153	 1.803333	 3.979147	-15.098590	 4.898592	 3.004813	-9.310344	 5.224449	 0.395017	 2.014677
-0.000648	 0.053771	 1.269395	 0.046643	 4.256590	 0.829263	 10.672750	-10.762320	 177.535200	 2.194538	-17.520110	 0.796480	 1.423675	 72.379670	-1.630656	-2.385833	 28.452750	 0.000004	-3.666123	-9.889200	-178.502300	-0.694345	-15.485870	 1.190896	 4.879793	 71.203530	 1.507315	 2.384659	 28.388700	-0.000001	-1.502743	 8.488290	 0.076962	 0.334975	-9.114024	 0.066960	-0.734402	 13.906400	 0.508954	-90.860760	 67.681290	-177.185300	-5.260378	 2.425601	-27.576740	 23.570670	-0.097763	-0.924171	-5.095273	-11.283860	-5.055536	-2.027600	 6.559038	 9.033609	-5.188889	 0.308190	 3.541030	-5.234859	 0.342567	 0.430617	 4.745804	 23.781290	-8.496693	-5.327831	-17.467870	 1.731248	 88.504040	 65.170640	 176.462600	 7.753528	 9.528376	 13.963160	-25.689660	-6.655010	 20.075330	 1.576889	-9.908288	 5.143523	 1.803333	 3.979147	-15.098590	 4.898592	 3.004813	-9.310344	 5.224449	 0.395017	 2.014677
